PathFileType	4	(X/Y/Z)	D:\TRACE\v60_Jaco2_6-2-23\JustBodyDRS_Motion3_2-platform.trc
DataRate	CameraRate	NumFrames	NumMarkers	Units	OrigDataRate	OrigDataStartFrame	OrigNumFrames
100.00	100.00	      74	5	mm	100.00	876	      7000
Frame#	Time	Left_Front			Right_Front			Left_Aft			Right_Aft			Post			
		X1	Y1	Z1	X2	Y2	Z2	X3	Y3	Z3	X4	Y4	Z4	X5	Y5	Z5	

876	8.750	-756.85718	-10.62796	-654.96570	813.71881	-12.12490	-632.33331	-688.31921	24.37421	478.57941	726.72357	25.14012	584.02655	39.51686	1276.96155	-1007.23212	
877	8.760	-756.74261	-10.50537	-654.89606	813.69940	-11.96931	-632.29993	-688.27771	24.27040	478.58347	726.75470	24.98503	584.06317	39.23997	1277.09290	-1006.67908	
878	8.770	-756.80170	-10.34043	-654.82751	813.82098	-11.79525	-632.21661	-688.11310	24.06726	478.62323	726.66064	24.78852	584.11810	39.25453	1277.58069	-1005.88849	
879	8.780	-756.88818	-10.14940	-654.98401	813.81311	-11.58313	-632.17529	-688.08789	23.99632	478.57663	726.65051	24.65405	584.20435	39.42799	1277.84583	-1005.49475	
880	8.790	-756.97638	-9.92230	-655.10260	813.82996	-11.34586	-632.11615	-688.10602	23.84513	478.59814	726.86652	24.56480	584.16199	39.43180	1278.18018	-1004.89825	
881	8.800	-756.95935	-9.65397	-655.02094	813.76184	-11.11631	-631.90741	-688.16095	23.63643	478.67896	726.94476	24.42056	584.22351	39.40852	1278.45581	-1004.44537	
882	8.810	-756.86102	-9.40824	-654.86084	813.64154	-10.81778	-631.88153	-688.23419	23.41262	478.82382	726.84967	24.17858	584.23047	39.43357	1278.79187	-1004.15271	
883	8.820	-756.74860	-9.22442	-654.73920	813.58441	-10.46426	-631.91718	-688.25317	23.26543	478.87845	726.73645	23.94957	584.29828	39.40186	1279.27991	-1003.81195	
884	8.830	-756.86688	-8.99341	-654.75848	813.53796	-10.19481	-631.99890	-688.34186	23.08053	478.91830	726.46069	23.71176	584.40723	39.22303	1279.67725	-1003.56317	
885	8.840	-757.12079	-8.64521	-654.81848	813.40027	-9.91524	-631.97705	-688.56201	22.94628	478.89957	726.22784	23.43890	584.45538	38.61761	1279.81421	-1003.21619	
886	8.850	-757.16296	-8.34723	-654.54175	813.20184	-9.61056	-631.85052	-688.78528	22.74946	478.92261	726.06244	23.20766	584.50250	38.75947	1280.53613	-1002.96008	
887	8.860	-757.78461	-8.00034	-654.91998	813.00519	-9.36017	-631.72198	-688.94177	22.46201	479.09500	725.93530	23.02610	584.54474	38.51754	1280.86292	-1002.32428	
888	8.870	-757.86951	-7.70171	-654.76709	812.83240	-9.16157	-631.64624	-689.08789	22.26631	479.33734	725.83618	22.85875	584.57092	38.01982	1281.29871	-1001.36237	
889	8.880	-757.78247	-7.43528	-654.73468	812.70459	-8.84910	-631.56989	-689.36804	22.50693	479.23291	724.80688	21.83307	584.20966	38.46291	1281.95056	-1000.67279	
890	8.890	-757.80530	-7.26962	-654.67334	812.65027	-8.58668	-631.50647	-689.43109	22.42500	479.23715	725.03363	22.03585	584.65747	38.40284	1282.19751	-999.71191	
891	8.900	-757.83801	-7.03361	-654.60413	812.60187	-8.32688	-631.47327	-689.53314	22.26921	479.25769	724.91199	21.75500	584.66956	38.23499	1282.64392	-998.86938	
892	8.910	-757.90198	-6.71019	-654.44897	812.54419	-8.26584	-631.77838	-689.69623	21.98711	479.32788	724.78595	21.63928	585.18048	38.01595	1283.04810	-998.09253	
893	8.920	-757.95905	-6.45054	-654.32635	812.30145	-7.84146	-631.39050	-689.85840	21.68486	479.33676	724.57147	21.38570	585.19482	37.68242	1283.61975	-997.45093	
894	8.930	-758.15942	-6.16617	-654.15997	812.08350	-7.48518	-631.20660	-690.15991	21.69603	479.24380	725.18756	21.28408	585.10059	37.67936	1284.30518	-996.63593	
895	8.940	-758.25006	-5.85974	-654.12573	811.96783	-7.05439	-631.14447	-690.15753	21.13562	479.68964	725.06323	21.14173	585.22394	37.55040	1284.72485	-995.93530	
896	8.950	-758.40851	-5.64642	-654.07397	811.85260	-6.63964	-631.09729	-690.29803	20.81953	479.85056	724.34320	20.75219	585.40979	37.33377	1285.10071	-995.47119	
897	8.960	-758.56946	-5.43890	-654.00940	811.60223	-6.21863	-631.03748	-690.34167	20.46248	480.04227	724.18201	20.42761	585.46167	37.17101	1285.64197	-994.94690	
898	8.970	-758.74188	-5.13291	-653.77618	811.51746	-5.90273	-630.95166	-690.41766	20.13333	480.25339	724.09161	20.15462	585.48798	36.98463	1286.34717	-994.35706	
899	8.980	-759.01257	-4.47929	-653.79309	811.47003	-5.44799	-630.87329	-690.59308	19.86453	480.26208	723.87665	19.87198	585.63257	36.84542	1286.91907	-993.85553	
900	8.990	-759.01276	-3.95591	-653.74969	811.26880	-4.99200	-630.83551	-690.68799	19.67786	480.32135	723.58203	19.61448	585.71649	36.56293	1287.29626	-993.24603	
901	9.000	-759.24805	-3.45373	-653.70917	811.10132	-4.78132	-630.77991	-690.87994	19.47329	480.34479	722.81421	18.52253	585.75061	36.43900	1287.94958	-992.35742	
902	9.010	-759.49200	-3.16384	-653.63104	810.93140	-4.50459	-630.57941	-691.16614	19.23313	480.39078	723.00421	18.58280	585.96851	36.49770	1288.56982	-991.16595	
903	9.020	-759.74811	-2.93975	-653.50671	810.70551	-4.08824	-630.49280	-691.50043	18.97307	480.49942	722.63751	18.32982	586.15833	36.32066	1289.02783	-990.34753	
904	9.030	-760.04675	-2.62184	-653.48535	810.36633	-3.88578	-630.57037	-691.66626	18.81443	480.54907	722.48102	18.27128	586.25134	35.79085	1289.40198	-989.53375	
905	9.040	-760.27136	-2.79414	-653.81580	810.34467	-3.72719	-630.84814	-691.76624	18.65915	480.58026	722.60217	18.08265	586.20770	35.55359	1290.02454	-988.64020	
906	9.050	-760.51508	-2.00796	-653.34467	809.82642	-3.13395	-630.35791	-691.88531	18.47849	480.68011	722.46790	17.87704	586.28912	35.47308	1290.51746	-987.78955	
907	9.060	-760.54901	-1.84336	-653.43988	809.68085	-2.56727	-630.40375	-692.01160	18.26526	480.76053	722.31152	17.49862	586.36200	35.31487	1291.01758	-986.94806	
908	9.070	-760.66980	-1.58581	-653.41785	809.53925	-2.31155	-630.32178	-692.31970	17.87635	480.87659	722.09351	17.15623	586.64557	35.23662	1291.77344	-986.20862	
909	9.080	-760.66595	-1.56919	-653.33691	809.35291	-2.00092	-630.15466	-692.57092	17.52386	480.96460	721.70081	16.53021	586.70703	35.05043	1292.23303	-985.60376	
910	9.090	-760.07605	-1.41626	-652.31000	809.10864	-1.37027	-629.94525	-692.74652	17.26670	481.12112	721.53607	16.35698	586.76917	34.60758	1292.81335	-984.82721	
911	9.100	-760.74414	-0.56909	-653.05597	808.97479	-0.97505	-629.91907	-692.76422	17.02566	481.22751	721.46802	16.14420	586.95288	34.36829	1293.77795	-984.29529	
912	9.110	-762.17059	1.15460	-652.36743	808.73755	-0.56366	-629.90222	-692.88098	16.64854	481.28983	721.45331	16.03627	586.95074	34.41451	1294.45813	-983.40369	
913	9.120	-762.45929	1.61458	-652.21375	808.70685	-0.24773	-629.78131	-693.30194	16.55219	481.39044	721.01575	15.41806	586.96497	34.22846	1294.99133	-982.31049	
914	9.130	-762.58069	1.74548	-652.09723	808.53046	0.14413	-629.64069	-693.58765	16.28872	481.39856	720.95178	14.88312	586.99854	33.90217	1295.46411	-981.29504	
915	9.140	-762.48145	1.99197	-652.19977	808.40503	0.55979	-629.43658	-693.79822	16.02755	481.50009	720.86725	14.69653	587.12115	33.79038	1296.05188	-980.10657	
916	9.150	-762.48822	2.33321	-652.10632	808.24146	1.05522	-629.31915	-693.87494	15.76339	481.68777	720.63495	14.40986	587.17133	33.69612	1296.75208	-978.96832	
917	9.160	-762.49481	2.62965	-651.94287	808.16846	1.46997	-629.35669	-693.96063	15.73002	481.77258	720.35663	14.03050	587.22894	33.25060	1297.23926	-977.84338	
918	9.170	-762.71350	3.13417	-651.95764	808.06219	1.87394	-629.36517	-694.19373	15.55704	481.65323	720.20013	13.77505	587.27557	32.95961	1297.97461	-976.97736	
919	9.180	-762.83478	3.50258	-651.96692	807.82483	2.21432	-629.19482	-694.40283	15.23232	481.69373	719.88434	13.41495	587.43591	33.02570	1298.69812	-976.09290	
920	9.190	-762.97284	4.02139	-651.88263	807.57660	2.57141	-629.03870	-694.59149	14.85020	481.89545	719.92139	13.15211	587.53082	32.90263	1299.18250	-975.12775	
921	9.200	-763.29382	4.71722	-651.64056	807.38574	3.02904	-628.90527	-694.66205	14.30192	482.29776	719.73535	12.84947	587.73706	32.82885	1299.66296	-974.37024	
922	9.210	-763.12646	4.94624	-651.88770	807.48822	3.52432	-628.78992	-694.61029	13.76351	482.49667	719.68872	12.55753	587.84326	32.95948	1300.51660	-973.70697	
923	9.220	-763.26563	5.32711	-652.00372	807.63940	3.80976	-628.99341	-694.65363	13.53185	482.53915	719.57379	12.26720	588.08636	32.47599	1301.11560	-973.30151	
924	9.230	-763.57953	5.94268	-651.82574	807.17493	4.30459	-628.70264	-694.77930	13.32132	482.63391	719.62543	11.79539	588.22736	32.39731	1301.90442	-972.64502	
925	9.240	-763.89392	6.41212	-651.58173	806.87421	4.74614	-628.61444	-695.05676	13.05535	482.75131	719.27130	11.28298	588.25854	32.20499	1302.54626	-971.77002	
926	9.250	-764.15002	6.65782	-651.32983	806.82184	5.16767	-628.33563	-695.31342	12.74721	482.90414	719.09137	10.96269	588.29028	32.13367	1302.94788	-970.77911	
927	9.260	-764.32190	7.03393	-651.22375	806.76202	5.65716	-628.33173	-695.52979	12.58481	482.97845	719.15173	11.12328	588.33002	31.87077	1303.54724	-969.57751	
928	9.270	-764.19641	7.49666	-651.01373	806.56757	6.03738	-628.39105	-695.55396	12.31103	483.07870	719.10553	10.66884	588.50336	31.57386	1304.33301	-968.68280	
929	9.280	-764.37323	7.88623	-651.31000	806.45477	6.50756	-628.34393	-695.58057	12.07027	483.18671	718.86047	10.21287	588.52698	31.69950	1304.83643	-967.46637	
930	9.290	-764.37195	8.17625	-651.23663	806.39813	6.78601	-628.10370	-695.60815	11.80024	483.31149	718.71735	9.66206	588.69617	31.65234	1305.38806	-966.20953	
931	9.300	-764.47455	8.79156	-651.02069	806.38715	7.27136	-627.88361	-695.72131	11.48118	483.33432	718.73206	9.38523	588.77869	31.37257	1306.03528	-965.29205	
932	9.310	-764.55975	9.32587	-650.85327	806.21191	7.57812	-627.86194	-695.91968	11.13406	483.29984	718.51025	8.94291	588.96387	31.54830	1306.54578	-964.24707	
933	9.320	-764.54993	9.62438	-650.66486	806.08002	7.92294	-627.84631	-695.95184	10.86094	483.34775	718.46075	8.83988	589.09900	31.58523	1307.14990	-963.17908	
934	9.330	-764.96161	9.99101	-650.40448	806.32220	8.33030	-628.10376	-696.09814	10.61470	483.35248	718.29498	8.48441	589.05621	31.32448	1307.71814	-962.50488	
935	9.340	-764.75940	10.28081	-650.76166	805.97742	8.85488	-627.74554	-696.16431	10.32108	483.39417	718.31354	8.20237	589.10181	31.14115	1308.30652	-962.04785	
936	9.350	-764.62292	10.52883	-650.39801	805.75854	9.30534	-627.43054	-696.22198	10.10382	483.52484	718.30414	7.78389	589.26257	31.04163	1308.90173	-961.32550	
937	9.360	-764.75464	11.23470	-650.29529	805.69495	9.61338	-627.53204	-696.23962	9.84028	483.61914	718.29376	7.48441	589.38312	30.91874	1309.52100	-960.65430	
938	9.370	-764.76416	11.59808	-650.17792	805.74811	10.11924	-627.42133	-696.26959	9.59737	483.71539	718.30750	7.06814	589.40729	31.04642	1310.14063	-959.99677	
939	9.380	-764.91522	11.38270	-650.29187	805.78674	10.45727	-627.33484	-696.15063	9.18863	483.80206	718.30792	6.75499	589.51605	31.16952	1310.78625	-959.09772	
940	9.390	-764.90814	11.64300	-650.22278	805.87274	10.52668	-627.61975	-696.04303	8.92860	483.92419	718.32916	6.47100	589.66119	30.78080	1311.23767	-958.44281	
941	9.400	-764.97302	12.63725	-649.87024	805.69446	10.92170	-627.14929	-696.17365	8.61790	484.14847	718.35864	6.15890	589.75659	30.80209	1311.95642	-957.56555	
942	9.410	-765.00201	13.09980	-649.78198	805.61902	11.43485	-626.89789	-696.30798	8.25458	484.34793	718.09241	5.80640	589.77606	31.00185	1312.61987	-956.39508	
943	9.420	-764.81506	13.74410	-649.66705	805.68042	11.92497	-626.82690	-696.42853	8.05682	484.43323	717.99316	5.64760	589.85974	30.82429	1312.95911	-955.33722	
944	9.430	-764.74200	14.10494	-649.46613	805.61548	12.23464	-626.70074	-696.47626	7.92782	484.44492	717.96698	5.48087	589.98743	30.24666	1313.30994	-954.19757	
945	9.440	-764.79974	14.31993	-649.47180	805.76447	12.70347	-626.67255	-696.28540	7.77591	484.47891	718.02948	5.18348	590.07764	30.07908	1314.08813	-952.97046	
946	9.450	-764.84155	14.47349	-649.44751	805.77386	12.92901	-626.65497	-696.51929	7.67037	484.32117	718.03979	4.77776	590.22845	30.34474	1314.63135	-951.80841	
947	9.460	-764.89252	14.71012	-649.41840	805.67194	13.37829	-626.54138	-696.50598	7.29412	484.50851	717.95599	4.34818	590.38605	30.24870	1315.12292	-951.06677	
948	9.470	-764.92841	14.93683	-649.35950	805.60223	13.62666	-626.43054	-696.49109	6.95262	484.74081	717.89484	4.06026	590.44141	30.52120	1315.38159	-950.22223	
949	9.480	-764.91235	15.36053	-649.16858	805.62500	13.88088	-626.45313	-696.52502	6.77119	484.84787	717.90393	3.89064	590.47278	30.30764	1315.64771	-949.46802	
